inDegrees=yes
name=ik_coleta1_mov
DataType=double
version=3
OpenSimVersion=4.4-2022-07-23-0e9fedc
endheader
time	q1	q2
9.721091985702515	-3.129978110921238	-2.584802591396729
9.72508692741394	-3.173769349410308	-2.541011351326762
9.731071949005127	-3.152545078277708	-2.562235622459535
9.748082160949707	-3.152545076378271	-3.417020204247474
9.756074905395508	-3.146502015633255	-3.423063264913802
9.760081052780151	-3.146501925943387	-6.624198872288374
9.768093109130859	-3.146502012411467	-7.680421336516646
9.778084993362427	-3.146500183603461	-16.42992074456147
9.797087907791138	-3.146502010616985	-17.65406153703025
9.82009482383728	-3.146502010684267	-18.87270033973129
9.830084085464478	-3.146501813016337	-23.0727151036797
9.854089975357056	-3.146502012467199	-24.12275299527576
9.883086919784546	-3.146501945595682	-27.07036747196794
9.891087055206299	-3.146502014180471	-27.88026526225102
9.904084920883179	-3.146502014494343	-28.62704729042808
9.916085004806519	-3.146502014700126	-29.32583640795747
9.925091028213501	-3.146502015071023	-29.91604111522005
9.935075998306274	-3.146502006862122	-31.39078956405279
9.946094036102295	-3.146502015594824	-31.63211416312185
9.951092004776001	-3.146502015613174	-31.82648837568827
9.956082820892334	-3.146502016091334	-31.27523781835134
9.963083982467651	-3.146502015781212	-30.89701859363808
9.968103885650635	-3.104523025276996	-30.93899758414602
9.97309398651123	-3.104523025533635	-30.46591663331945
9.986088991165161	-3.104523025685392	-29.91350913881741
9.992084980010986	-3.00041583141368	-30.01761633310175
9.997082948684692	-2.840620791214238	-30.1774113733041
10.00208497047424	-2.840620792081887	-29.4103766172248
10.01008296012878	-2.840620797767161	-27.89838366523875
10.0200879573822	-2.840620807799324	-25.83695433674908
10.02708196640015	-2.610092079887424	-26.06748306554064
10.03308010101318	-2.610092137539913	-22.8297909507892
10.03711199760437	-2.177270215065505	-23.26261287774271
10.04106903076172	-2.177270261819785	-20.08941225265038
10.05510592460632	-2.17727025760534	-17.01515751350587
10.06310701370239	-2.177270229806061	-14.86279383925054
10.07008290290833	-2.177270220445314	-13.33784378651714
10.08008694648743	-1.81935119445587	-13.69576281349502
10.08809208869934	-1.819351197899099	-12.31899573478995
10.09208106994629	-1.478995248388396	-12.65935168506114
10.10311007499695	-1.478995252274836	-11.15336528313025
10.1071150302887	-1.478995263084945	-8.795244218686364
10.11310410499573	-1.478995252066569	-7.317288591210707
10.12208414077759	-1.47899525457478	-5.554469955768059
10.12809205055237	-1.478995252687406	-3.996049464392736
10.13208103179932	-0.6735774444882272	-4.8014672755776
10.13811302185059	-0.6735774496638962	-3.077081289727818
10.14407706260681	21.49205146932677	-25.24275286936906
10.15609908103943	21.49204076199975	-23.43901337087514
10.16208600997925	28.7961964133485	-30.74317059220235
10.1740870475769	28.79619605477364	-29.34987865773603
10.18209195137024	30.20526597721765	-30.75894859251478
10.18708491325378	30.20526596926059	-28.52223330216013
10.19207906723022	36.24105959142241	-34.55802789231311
10.19807195663452	36.24105941357281	-33.93374232397913
10.20807909965515	37.31979287117588	-35.01247578715209
10.21308302879333	37.31979286991786	-34.13249657228322
10.21911811828613	40.62073185942189	-37.43343572135444
10.22709393501282	40.714484166049	-37.52718786862297
10.24108576774597	40.71448416567357	-36.57775015363536
10.2601010799408	38.94710597907471	-34.81037194217875
10.28009104728699	38.4961464638431	-34.35941245165183
10.38712787628174	38.49614646355732	-33.3841829838376
10.39208698272705	38.49614646368735	-32.55066866286531
10.42108583450317	38.49614646374322	-31.79603425779875
10.45111012458801	37.67938483542714	-30.97927262696717
10.46909093856812	36.36739302392377	-29.66728080710654
10.47908401489258	36.45571291393974	-29.75560070814058
10.51109075546265	36.45571291388512	-29.24813683849917
10.5200879573822	36.45571291385338	-28.65586228603208
10.54808902740479	35.9022483571068	-28.10239772856103
10.55209898948669	35.90224835711453	-27.44628862192003
10.56709098815918	35.90224835722403	-27.20980544709238
10.60309910774231	35.90224835722813	-27.06233419586219
10.62511515617371	35.90225023920877	-43.77076005494968
10.62908792495728	34.7357869560371	-42.60429635453908
10.63409304618835	34.7357869572399	-43.27269665633867
10.64108896255493	34.07585216243502	-42.61276186115568
10.64509987831116	34.0758521646549	-44.41712179870194
10.64907693862915	30.96629556853857	-41.30756517020466
10.65308594703674	30.96629580030134	-49.89362923961539
10.66407012939453	30.96629558755833	-51.21159913648695
10.67308473587036	30.9662956279421	-56.17159633036357
10.70408797264099	30.96629558781137	-57.62017826717334
10.71408200263977	30.96629561111692	-61.78303056958907
10.72408390045166	30.96629558826296	-63.41904113576046
10.73609209060669	27.90773221480518	-60.36047775283176
10.75108814239502	0.5615299514850597	-33.01426878421126
10.77608013153076	-0.7690734835172846	-31.6836720631098
10.78211498260498	-0.7690734752545053	-32.72747198535084
10.79109382629395	-0.7690734714743794	-34.26009255698632
10.81808614730835	-0.7690734753000302	-35.2947440074193
10.82808899879456	-0.7690734762552184	-36.08058307235835
10.83809304237366	-0.7690734763009757	-36.84998556913503
10.85409593582153	-0.7690734659332104	-38.78190439479786
10.87509298324585	-1.352521879709276	-38.19845598064074
10.88008499145508	-1.352521879009916	-38.54103930426884
10.90008807182312	-4.049788112688725	-35.84377305933912
10.90508699417114	-4.04978802384899	-36.06800882670657
10.90908002853394	-4.718899928937082	-35.39889692143902
10.9140830039978	-4.718899928518221	-35.01566245216064
10.91909193992615	-4.230558348678172	-35.50400403207941
10.92406892776489	-4.230558348841923	-35.16052148232974
10.93609690666199	-4.230558350128223	-33.89931422932627
10.94508409500122	-4.230558349750033	-32.77315776855139
10.94908404350281	-3.580011541446806	-33.42370457713987
10.95307993888855	-3.580011555888233	-30.35682871711488
10.95811986923218	3.650979868814547	-37.58782051061844
10.96307897567749	3.650979853088498	-35.80357271240761
10.98608613014221	3.65097984077219	-27.69422479107315
10.99408507347107	3.650979852567632	-24.66708310340482
10.99907398223877	4.597602382822269	-25.6137056389089
11.00408482551575	4.597602382679077	-24.24380461875776
11.02310490608215	4.597602382681102	-22.88470359743437
11.03109288215637	4.597602382674799	-21.49477155472791
11.03607606887817	7.432558844752993	-24.32972806511597
11.04007697105408	7.43255884104837	-22.94574169776699
11.05808401107788	7.432558841031936	-21.52947213082409
11.06310486793518	7.432558841030421	-20.11063978239305
11.07308101654053	7.43255883791143	-16.71448530555135
11.08709001541138	7.432558841001298	-15.24295160750924
11.0940887928009	17.87534198466345	-25.68573774869022
11.10311484336853	17.87534014298808	-24.17505917606989
11.11110019683838	17.87534012413092	-21.27278443929336
11.12811398506165	17.8753401436911	-19.88648279956434
11.13707900047302	17.87534014411129	-18.58660647112255
11.14309000968933	17.87534005619064	-13.94397747225861
11.15008401870728	17.87534014556481	-13.11117905786369
11.21719288825989	20.12839232696222	-15.36423128036385
11.24109196662903	21.46406867298423	-16.69990759395826
11.26509094238281	21.46406866869641	-16.21224680557929
11.29409289360046	21.46406866871375	-15.75087596076357
11.32008004188538	21.46406866875585	-15.37042950794661
11.33118677139282	21.46406866877245	-15.0340438664227
11.34009289741516	21.46406866879902	-14.81271950679743
11.34511780738831	26.82256744095266	-20.17121889765174
11.36208200454712	32.55290238636986	-25.90155398118262
11.36707997322083	32.55290216061761	-25.76397541832969
11.38507890701294	34.2195095880264	-27.43058286425986
11.39806795120239	34.21950958269056	-27.36383190191479
11.40207409858704	40.69016481969997	-33.83448821115944
11.40907597541809	40.69093602904221	-33.83371686695543
11.43010187149048	40.69016601817062	-46.87412842907001
11.43606805801392	42.77551073441116	-48.95947296107871
